/* XPM */
static char *e61601a5aa3b452c8b4e4fb5c530e775bpUUBt5ThqtUBZsq[] = {
/* columns rows colors chars-per-pixel */
"60 60 252 2 ",
"   c #05080B",
".  c #0D1315",
"X  c #0C141A",
"o  c #0B1619",
"O  c #131C1C",
"+  c #151818",
"@  c #141010",
"#  c #1A241A",
"$  c #091622",
"%  c #121F22",
"&  c #1B2623",
"*  c #1A2C33",
"=  c #252927",
"-  c #293838",
";  c #353A38",
":  c #2F342D",
">  c #2E423E",
",  c #3A433B",
"<  c #464839",
"1  c #4C513E",
"2  c #555337",
"3  c #685D3D",
"4  c #1A3356",
"5  c #1B314F",
"6  c #363D43",
"7  c #2A3D4E",
"8  c #1D3A66",
"9  c #463C44",
"0  c #2F4241",
"q  c #314544",
"w  c #3D4244",
"e  c #364C4A",
"r  c #384E4B",
"t  c #364A46",
"y  c #3C544E",
"u  c #37504D",
"i  c #3D5651",
"p  c #3E5852",
"a  c #2B4250",
"s  c #29476D",
"d  c #464947",
"f  c #41554E",
"g  c #4A5548",
"h  c #535849",
"j  c #415751",
"k  c #435B54",
"l  c #495E54",
"z  c #455E58",
"x  c #485F59",
"c  c #585854",
"v  c #4E4D51",
"b  c #6C4D5A",
"n  c #59644B",
"m  c #466057",
"M  c #476159",
"N  c #4A635B",
"B  c #4D6559",
"V  c #586758",
"C  c #5D7159",
"Z  c #4F6147",
"A  c #666948",
"S  c #646A57",
"D  c #6B7458",
"F  c #757A59",
"G  c #776E48",
"H  c #5A5965",
"J  c #705365",
"K  c #4C6661",
"L  c #4E6963",
"P  c #536C64",
"I  c #566E67",
"U  c #5C7363",
"Y  c #5A766B",
"T  c #5A7771",
"R  c #516478",
"E  c #686A64",
"W  c #647C6A",
"Q  c #687868",
"!  c #747967",
"~  c #686777",
"^  c #766A76",
"/  c #787577",
"(  c #6B736F",
")  c #84734A",
"_  c #8F7D58",
"`  c #945B79",
"'  c #8B526F",
"]  c #867D7A",
"[  c #936E7A",
"{  c #7A835B",
"}  c #69826C",
"|  c #798565",
" . c #6C8472",
".. c #688578",
"X. c #778877",
"o. c #7A937A",
"O. c #7EA07F",
"+. c #888858",
"@. c #92975B",
"#. c #958059",
"$. c #979C66",
"%. c #858B77",
"&. c #86977A",
"*. c #959C78",
"=. c #8B8C69",
"-. c #99A378",
";. c #99A069",
":. c #A4AC75",
">. c #A6887E",
",. c #7C7586",
"<. c #747088",
"1. c #965C87",
"2. c #8C6B85",
"3. c #9A6489",
"4. c #867B89",
"5. c #877895",
"6. c #987997",
"7. c #986E8E",
"8. c #A46B8C",
"9. c #A56B93",
"0. c #AA7296",
"q. c #AF7995",
"w. c #9F79A5",
"e. c #AB79A4",
"r. c #799787",
"t. c #7D9C94",
"y. c #6E8B8A",
"u. c #6D95B1",
"i. c #7AA3B1",
"p. c #6F9AA8",
"a. c #7DABCC",
"s. c #75ADEC",
"d. c #7AB2F0",
"f. c #6898C3",
"g. c #8B8888",
"h. c #958989",
"j. c #859886",
"k. c #96968B",
"l. c #898597",
"z. c #93839B",
"x. c #978997",
"c. c #899B95",
"v. c #949393",
"b. c #9B9394",
"n. c #94939C",
"m. c #9B9898",
"M. c #A38A99",
"N. c #A4939C",
"B. c #A6989A",
"V. c #A9888F",
"C. c #87A58A",
"Z. c #95A38D",
"A. c #97A787",
"S. c #97A796",
"D. c #91AE97",
"F. c #A5A89A",
"G. c #A8B497",
"H. c #ADAF90",
"J. c #8887A4",
"K. c #988BA6",
"L. c #9C93AB",
"P. c #9898A8",
"I. c #9898B7",
"U. c #8C96AA",
"Y. c #A48CA5",
"T. c #B982A1",
"R. c #A494A3",
"E. c #A494AC",
"W. c #A49BAC",
"Q. c #AB9BAC",
"!. c #A998A6",
"~. c #B59BA7",
"^. c #A59BB3",
"/. c #AB9CB4",
"(. c #AB9DBB",
"). c #A796B5",
"_. c #B29DBA",
"`. c #98A9A7",
"'. c #9BBAA7",
"]. c #9BA4BA",
"[. c #8BAAB5",
"{. c #ACABA4",
"}. c #ACA4AC",
"|. c #A8A5A6",
" X c #B4ABA7",
".X c #ACB3A8",
"XX c #B6B5AA",
"oX c #ACA3B4",
"OX c #ACA2BC",
"+X c #A6A7B8",
"@X c #B4A7BA",
"#X c #AAB2BA",
"$X c #B6B6B6",
"%X c #C896AF",
"&X c #CBACBB",
"*X c #A7C4AA",
"=X c #B8C6AB",
"-X c #AAC7B6",
";X c #B7CAB7",
":X c #B7D3B9",
">X c #B0D0AB",
",X c #C7D1B5",
"<X c #9F9DC3",
"1X c #A99DC3",
"2X c #B29EC1",
"3X c #9DA4C2",
"4X c #9BAAC7",
"5X c #84AECC",
"6X c #A2A6C3",
"7X c #ADA3C2",
"8X c #A3AAC5",
"9X c #A8ABC7",
"0X c #B1A4C2",
"qX c #B3AAC5",
"wX c #ABB1C4",
"eX c #D0B4C5",
"rX c #BED9C5",
"tX c #B8D5C6",
"yX c #B2D2CF",
"uX c #9EDBFB",
"iX c #AED8EF",
"pX c #A4E3FF",
"aX c #9FE0FE",
"sX c #C5DCCC",
"dX c #C5DAC7",
"fX c #C6DED3",
"gX c #D2D8CC",
"hX c #CBE3CC",
"jX c #CCE3D3",
"kX c #CBE4DA",
"lX c #D2E6DA",
"zX c #D7E8D8",
"xX c #DDF0DC",
"cX c #DCE6CB",
"vX c #E7EDD9",
"bX c #C9E5E8",
"nX c #D5EAE3",
"mX c #D7EBE7",
"MX c #D7F0F0",
"NX c #E8EDE5",
"BX c #E8F2E6",
"VX c #E6F9FB",
"CX c #EAFBFC",
"ZX c #E5F6F7",
"AX c #FAFCF5",
"SX c #F4FFFF",
"DX c #FFFFFF",
"FX c #FEFFFD",
"GX c #FEFFFD",
"HX c #F4F9F5",
"JX c #F6FAED",
"KX c #E2C0CE",
/* pixels */
"kXnXmXmXZXSXFXAXSXHXHXHXHXBXkXtX*XD.t.y.......y.r.....T T T I L L L K M K M M K p R ....N u t t e t e 0 0 0 0 0 > - > - ",
"jXkXlXlXkXkXlXfXfXnXnXmXmXbXtXyX'.t.y...} Y Y ..r...T P L P T L L L K L K K M K K I ..y.B u u e e e e e e 0 e 0 0 0 > > ",
"BXBXmXxXzXlXjXfXfXtXrXrXsXtXtX-X'.t.o...} Y Y  .o...Y P I I L L I P I P K L N L K L y.y.L i i u u u e e e e e 0 q q q 0 ",
"DXDXDXDXDXDXFXFXAXHXHXBXBXBXxXzXhXhX>Xt.r.D.C.o.r...Y C I I T Y I Y U W ( I L P L ..y.y.I m p p p i i i u i u e e t q > ",
"FXFXDXDXDXDXDXDXDXFXDXDXDXDXDXDXAXDXDXBXzXgXdXdX*XD.} ..W  .r.X.&.o.} A.j.U U I } ..O.r.} B M m z p p p p p p i y e e t ",
"cXvXBXJXJXAXFXDXDXDXDXDXDXDXFXAXSXAXDXDXDXDXDXDXFXvX>XA.A.A.-.-.A.A.-.S.X.Q W Y Y y.t.t...C B N K M K M k k p p j y y y ",
" .o.o.&.j.&.&.A.A.G.*X;X,XgXcXBXDXDXAXAXFXcXXXXXk.&.=.-.-.*.+.F @.-.-.-.&.&.&.W } ..t.t.} P B N M K K p z p z k k p j y ",
" . ...W W C B l m Z B C C } } } =XAXNXXXF.X.n C A A A A 3 n A 2 A A =.-.-.;.;.;.} ..t.t...K K B K M M K z z x x j l j j ",
"C C W }  . .} } } } } } } } o.o.H.cX,X%.D S S D D S < ; , 1 g < 2 2 A +.@.@.@.$.-.&.C.t.} P B N M M M M x z z k k k k f ",
"V C } o.&.o.O.C.O.C.&.C.A.*X>X>X:X&.D S C D ! | ! A g - : , d ; , < h G +.@.@.@.@.:.A.&.} P B N K K M K N z N x x l k j ",
"C } } o.o.O.C.G.*X>X:XrXhXxXBXcXH.{ S D S V S S n 1 ; : ; , , ; ; < h A F @.$.$.@.-.D.r.Y B B P K K K z N M N M m l k f ",
":X=X=X>X=X>X>X;X:X,XhXxXBXJXvX-.D { C c g ; , r t : = - ; 9 ; ; , d h 1 A F @.$.:.:.A.o.} P L B K K M K N N N N m l k f ",
"DXDXDXDXDXDXDXDXAXJXAXAXAXAXH.A A A S g d w g v 6 6 = * - ; - ; d v h A S A G +.@.:.:.-.} B B L K K K z z M N M m l j j ",
"DXDXDXSXFXDXFXDXFXDXDXFXFXcXF 2 Z 1 d 6 w w d d 6 6 6 6 - - ; ; < ; d S F D D D { ;.:.A.} P B B K K K M N M M M M l l j ",
"gXvXNXJXFXDXFXFXFXFXDXAXAXk.1 n v ; ; d d v v v 9 9 6 6 - : 6 ; ; - : ; g S | F D | ;.A.| B B N M M K K N N N N N N l j ",
"Y T Y G.AXFXFXFXFXDXDXFXvXD c V d d 9 c <.,.^ ^ H H ~ H 9 ; ; 6 ; 6 d 9 d v S D { { =.-.&.V B N K K M M M M M M M k j j ",
"p.p.'.jXAXFXFXFXFXDXDXFXj.h n c d d E 6.x.z.z.z.l.x.z.n.4.~ H c v d v c d c J S S F +.%.A.C B B N N B N m M l N m m f k ",
"tXfXCXAXDXFXFXFXFXAXFXHXQ h E c c ^ x.x.M.Y.R.E.L.R.P.E.L.L.K.5.^ E S c S c S E S c D %.C.C B B l B x m m z l x k m Z k ",
"AXGXDXDXDXDXFXFXFXFXFXNXS c c H ( k.m.N.R.!.Q.(././.(././.^.R.z.x.4.4./ E S F E ! S n | k.C B N N N N m M m x k k m k f ",
"GXGXDXDXDXDXFXDXFXFXDXBXE w g V g.!.R.!.Q.Q./._.@X(.OXOXOX_.E.E.K.x.l.h.] ] ] ! Q E / Q &.C B B N N M N N N x x k k k f ",
"GXGXGXGXGXGXGXGXFXFXAXNXV g g E F.|.}.Q.Q.}.(.@X7X7X7X0XOX2X(.^.^.^.W.W.P.n.v.v./ E S ! X.B B M N N N N N N N N m m k j ",
"GXGXGXGXGXGXGXGXFXFXGXvXS l g / |. X}.}.}.oX@XqXqXqX0X7XOX0X9X7X7X7XwX0X+X+X}.}.c.V d X.X.l M M N N N x N N x z m m m j ",
"GXGXGXGXGXGXGXGXGXGXGXNX( g h ! F. X}.~.}.oX@X_.7X0X7X0X7X7X(.7X7XqXwXqX#X$X X$X|.E g ! X.k m B M N x N M M M m m m l i ",
"SXSXGXGXGXGXSXGXGXSXGXCX! g h X.{.F.}.}.oX/.@X(.(.(.(.(.OXOX1XOXOXOXOXqXwX@X#X$X.X! n X. .Z m m M M N z M N N N M m k j ",
"CXSXSXSXSXSXSXSXCXSXSXVXQ g h g.{.|.{.}.}.oX_.).(.(.(.).(.(.(.(.1X2X7X0XqX$X$XXX=X/ n &.Q l M M M M m m m m M M m m k k ",
"ZXZXVXCXCXCXCXCXVXCXCXBXC < n B.{.{.}.}././.(.2X0X0X1X1X1X7X7X7X7X9XqX6XoX#X$X$X&X&.n &.V j k k m M M m m M M m m m f f ",
"ZXVXVXVXCXZXCXVXVXVXCXBXC , ( F.{. XB.,./ <.<.5.J.L.).1X6X7X7X1XK.5.<.R ~ / c.$X=XZ.S %.B k j k k M m M M M B m m k k f ",
"ZXVXCXVXVXZXCXCXCXCXCXCX( < %.|.{.m.( ^ ^ ~ H H J <.K.L.).(.(.L.2.~ H <.~ ,./ k.=XH.F o.B p j k k M k k k k M k k k k f ",
"VXVXVXCXCXCXCXCXZXVXCXCXj.< %. XF.g.l.L.I.9X6XK.J.l.5.R.).(.W.K.U.I.I.9X9X3XP.n.XXG.! | f j j j k k k k p k k k Z p p p ",
"VXVXVXCXZXZXZXZXZXZXNXW.] c ] |.m.b.K.n.J.<.<.p.J.z.l.L.OXqXP.J.J.J.<.5.l.P.P.P.XXG.F j.V g j j p k k k k p k p f k p y ",
"MXMXiXbXbXbXbXiXbXmX,X[ B.] %.F.m.z.g.^ ~ H 4 U.I.5.K.K.}.OXL.I.<.I.R 7 <.R y.L.XXG.%.,XF.g y p p j p p j j p k k y f y ",
"yXiXyXwXyXyX$X;X-X$X!.4.~.M.%.B.|.n.n.z.K.I.<.<XK.5.K.L.E./.I.I.w.).p.<.I.J.l.P.XXXXB.~.] c f p p k k k p p j k f k f y ",
"'.'.S.S.G.S.G.H.G.Z.V.7.B.b.k.B.{.|.W.}.I.^.<XI.w.K.L.E.N.oXQ.L.I.I.I.I.].].#X#X=XXX{.B.] c d j p p p p p p p j p j i y ",
"*.k.Z.Z.D.A.F.G.G.k.b.x.V.h.B.B.!.!.Q.(.(.9X9X1XI.).!.Y.M.@X/.!.^.1X<X<X8XwXwX&XXXXXV.~.] c f j i p p p p p y y y y y y ",
"*.A.Z.Z.S.S.G.F.`.c.n.P.M.~.B.B.B.!.!.Q.(.(.1X).).!.~.x.Y.@X@XR./.OX1X1X@XeXeXXXXXXXh.B.%.d f y i i i i p i u y y y y y ",
"*.A.Z.Z.S.S.S.'.`.U.p.P.z.~.B.k.B.M.~._./.).).).).!.V.Y.~._.@X~.!.OX_.OXqX$X@X@XXX&XB.N.^ w j i p u p p i i i y y y f y ",
"-.A.S.Z.Z.S.`.`.[.[.5X].x.M.B.v.B.B.~.Q.2X2X1XY.Y.M.R.Y.).2X)./.E.)._._.qXqX@XXX{. XB.|.l y y j i i p p p u i i y j y y ",
"-.k.Z.Z.S.S.`.`.5Xa.5X5XP.!.N.b.M.N.Q./.2X0X(.Y.Y.0.2.J 6.K.^ ^ z.Y.1X1XqXqXOX X XH.&XF.g j i j i i p p i i i i i i y y ",
"k.k.Z.Z.Z.S.`.[.[.a.a.5XP.b.N.x.b.B.Y.~./.2X).).Y.6.2.6.5.5.z.5.).@XOX(.0X/./.Q.XX|.$Xm.y i i i p p p p i i p i i i y y ",
"A.*.Z.S.k.c.c.[.i.f.u.u.u.p.U.m.b.N.N.Y.E././.)./.)./.(.^.I.(.7XOX/.(.)./.E.L.N.|.h.|./ k j j i i p p p u i i p y i y y ",
"%.r.j.j.c.C.t.c.i.p.y.y.p.i.i.'.m.b.N.N.Y.E.^.).I.+X).1X1X(.OXOX^.E.P.K.P.R.P.|.m.U ..T k p p i i p p i i i p u i i y y ",
"E Q } r.D.*X*X*X'.'.'.'.'.*X-X-XS.v.N.R.N.R.x.4.6.6.6.w.z.6.K.w.z.4.<.z.E.!.P.+Xj.Y ..Y m p y i i u u p u i p u y y i y ",
"} C.D.*X,XjXhXzXhXhXhXhXhXhXjXsX.Xg.B.N.Q.W.z.2.2.2.1.6.7.7.6.5.5.5.z.K.oXW.R.|.( Y ..T m k p y i i i i i i i i y y y u ",
"C.'.:XrXjXxXxXxXxXxXxXxXxXkXkXtX#Xg.v.M.Q.oXE.!.M.6.9.w.w.w.w.w.K.Y.E.^.oXW.`.n.I T y.T m p p p p p i u u i i i p i y u ",
"t.D.*X>X>X:X:X:X:X:X:X>X>X>X*X'.t.r.x.M.N.Q.!.N.!.R.x.z.5.6.K.Y.E.).W.^.}.P.|.g.B T ..T p i y u u u e u u e e e e u e u ",
"Q D F F { F C C { C C Z Z Z Z Z > I v.h.x.N.M.Y.!./._.).).).Q._._.Q.^.oXW.n.S.g.V N N k > > - > > - - - * - - - - > e u ",
"3 G G G A 2 < : # # # # # # o # + h b.g.h.m.N.!.!.!.).).).2XOX@X}.Q.oX^.n.n..Xk.U > & & O & O # $ % & O O O o O O * 0 e ",
"A G _ _ +.$.$. .} } } } }  . .}  .o.m.h.g.x.M.M.Y.~.E.).).).7XOXW.R.L.n.z.S.XXj.l & o X X o $ o X X X o o o X o $ * q e ",
"G ) #.#.A.;X;X-X'.'.'.'.*X*X-X-X>X:XF.g.h.g.] g.h.x.Y.K.I.E.E.K.x.l.g.l.P.|..Xc.7 4 5 5 5 5 4 4 4 4 8 8 5 $ X X $ * u t ",
"G ) #._ k.rXkXyXtX-X:X:X:XtX:XtXtXsX;Xg.k.g.] ^ ^ ^ ^ 2.2.,.,.,.,.4.g.n.`.|.{.-X5Xs.d.s.d.d.s.s.s.s.d.s.f.4 $ X $ - e e ",
") ) ) G &.yXkXyXtXtX:X;X:X:X:XtX:XhX;Xj.k.k.v.g.4.^ J H H ~ ^ 4.g.n.U.P.`.}. XXXdXfXiXpXpXuXaXuXuXaXpXuX5Xs $ $ & - > , ",
"$.-.*.| C.tXbXyXyX:XyX:X-XtX:X:XtXrXdXk.v.v.m.!.`.P.l.,.l.U.I.P.U.P.P.].+X.X.XXXXX,X>.B.yXa.u.f.f.f.f.u.<.* % $ # & = ; ",
":X;X:X-X-XtXtXtXtXtXtXtXtX:XtXrX:XdXhX{.g.m.m.P.}.+X].8X4X9X8X6X3X+X6X8X#X#X$X{.XX,XH.>.%X%X^ +   o . .   X X X o . = : ",
"rXfXsXdXsXrXrXrXrXtXrXrXdXdXsXgXhXzXlXF.g.k.k.m.P.+X6X9X8X6X3X3X6X6XwX9X9XwX.X{. X X%XV.V.%X%X%Xd     X $ $ X X o + = : ",
"kXkXjXfXfXsXsXhXdXhXsXhXhXhXgXnXzXdXV.] h.k.v.v.K.P.6X4XI.].].3X8X8X8X#X9X#X#X}.}. XV.9.T.q.T.%X&Xq.9   . + X X + . = : ",
"nXlXlXlXlXlXfXkXkXkXjXjXjXlXzX XV.' ` q.h.h.v.v.v.n.L.L.U.I.I.3X+X6X8X9X9XwX#X#X}.E.7.` 8.q.9.0.%XeX&X` @   X + @ @ = : ",
"mXmXxXlXzXlXlXlXlXjXlXlXNXgX7.' ' ' 8.8.h.h.k.b.n.l.l.U.I.5XI.].3X8X9X9X9X9XwX+XW.z.3.9.9.e.0.1.8.q.%X%XM.=   @ @ @ : < ",
"mXmXmXmXnXnXnXzXlXlXfXgXT.b b ` ' ` [ [ h.k.b.b.v.l.J.U.I.3X<X3X4X8X4X4X4X6XwX+XK.3.3.1.1.9.9.9.9.8.8.%X%X%X^ +   + < 3 ",
"MXmXmXmXmXnXnXkXlXgXXX[ b ' ` ` ` ` [ [ >.k.k.B.n.P.U.I.I.4X3X3X6X9X9X4X4X4X8XL.6.3.1.1.9.9.0.e.9.q.9.8.8.%XKX%Xb @ 2 ) ",
"mXMXmXmXbXnXnXnXgX~.[ ' b ' 1.' ` 8.` ` [ k.h.V.g.J.L.I.3XI.<X3X4X3X4X4X4X1XL.7.3.1.1.3.9.0.9.3.3.9.T.0.8.8.T.eXKXV.) _ "
};
